REM DIRINDEX 1\2\6,1\2\7,1\2\8,1\2\9,1\3\10,1\3\11,1\4\12,1\4\13,1\4\14,1\5\15,1\5\16,1\5\17
REM DIRNAME folder01,folder02,folder03,folder04,folder05,folder06,folder07,folder08,folder09,folder10,folder11,folder12,folder13,folder14,folder15,folder16,folder17
TITLE ""
FILE "1400_3_sec12_1117_1132.mp3" MP3
  TRACK 01 AUDIO
    TITLE "0:"
    INDEX 01 00:00:00
  TRACK 02 AUDIO
    TITLE "17:cjc029_6673"
    INDEX 01 00:00:15
  TRACK 03 AUDIO
    TITLE "0:"
    INDEX 01 00:01:34
  TRACK 04 AUDIO
    TITLE "16:cjc029_6674"
    INDEX 01 00:01:38
  TRACK 05 AUDIO
    TITLE "0:"
    INDEX 01 00:02:53
  TRACK 06 AUDIO
    TITLE "17:cjc029_6675"
    INDEX 01 00:03:41
  TRACK 07 AUDIO
    TITLE "0:"
    INDEX 01 00:05:30
  TRACK 08 AUDIO
    TITLE "16:cjc029_6676"
    INDEX 01 00:05:34
  TRACK 09 AUDIO
    TITLE "0:"
    INDEX 01 00:06:49
  TRACK 10 AUDIO
    TITLE "17:cjc029_6677"
    INDEX 01 00:07:35
  TRACK 11 AUDIO
    TITLE "0:"
    INDEX 01 00:11:19
  TRACK 12 AUDIO
    TITLE "16:cjc029_6678"
    INDEX 01 00:11:23
  TRACK 13 AUDIO
    TITLE "0:"
    INDEX 01 00:12:52
  TRACK 14 AUDIO
    TITLE "17:cjc029_6679"
    INDEX 01 00:13:37
  TRACK 15 AUDIO
    TITLE "0:"
    INDEX 01 00:14:70
  TRACK 16 AUDIO
    TITLE "16:cjc029_6680"
    INDEX 01 00:14:74
  TRACK 17 AUDIO
    TITLE "0:"
    INDEX 01 00:16:12
  TRACK 18 AUDIO
    TITLE "17:cjc029_6681"
    INDEX 01 00:16:73
  TRACK 19 AUDIO
    TITLE "0:"
    INDEX 01 00:18:19
  TRACK 20 AUDIO
    TITLE "16:cjc029_6682"
    INDEX 01 00:18:25
  TRACK 21 AUDIO
    TITLE "0:"
    INDEX 01 00:19:38
  TRACK 22 AUDIO
    TITLE "17:cjc029_6683"
    INDEX 01 00:20:24
  TRACK 23 AUDIO
    TITLE "0:"
    INDEX 01 00:23:20
  TRACK 24 AUDIO
    TITLE "16:cjc029_6684"
    INDEX 01 00:23:24
  TRACK 25 AUDIO
    TITLE "0:"
    INDEX 01 00:24:39
  TRACK 26 AUDIO
    TITLE "17:cjc029_6685"
    INDEX 01 00:25:23
  TRACK 27 AUDIO
    TITLE "0:"
    INDEX 01 00:26:54
  TRACK 28 AUDIO
    TITLE "16:cjc029_6686"
    INDEX 01 00:26:60
  TRACK 29 AUDIO
    TITLE "0:"
    INDEX 01 00:28:02
  TRACK 30 AUDIO
    TITLE "17:cjc029_6687"
    INDEX 01 00:28:60
  TRACK 31 AUDIO
    TITLE "0:"
    INDEX 01 00:30:14
  TRACK 32 AUDIO
    TITLE "16:cjc029_6688"
    INDEX 01 00:30:20
  TRACK 33 AUDIO
    TITLE "0:"
    INDEX 01 00:31:41
  TRACK 34 AUDIO
    TITLE "17:cjc029_6689"
    INDEX 01 00:32:25
  TRACK 35 AUDIO
    TITLE "0:"
    INDEX 01 00:33:26
  TRACK 36 AUDIO
    TITLE "16:cjc029_6690"
    INDEX 01 00:33:30
  TRACK 37 AUDIO
    TITLE "0:"
    INDEX 01 00:34:53
  TRACK 38 AUDIO
    TITLE "17:cjc029_6691"
    INDEX 01 00:35:39
  TRACK 39 AUDIO
    TITLE "0:"
    INDEX 01 00:36:68
  TRACK 40 AUDIO
    TITLE "16:cjc029_6692"
    INDEX 01 00:37:03
  TRACK 41 AUDIO
    TITLE "0:"
    INDEX 01 00:38:22
  TRACK 42 AUDIO
    TITLE "17:cjc029_6693"
    INDEX 01 00:39:03
  TRACK 43 AUDIO
    TITLE "0:"
    INDEX 01 00:40:13
  TRACK 44 AUDIO
    TITLE "16:cjc029_6694"
    INDEX 01 00:40:21
  TRACK 45 AUDIO
    TITLE "0:"
    INDEX 01 00:41:20
  TRACK 46 AUDIO
    TITLE "17:cjc029_6695"
    INDEX 01 00:42:06
  TRACK 47 AUDIO
    TITLE "0:"
    INDEX 01 00:43:25
  TRACK 48 AUDIO
    TITLE "16:cjc029_6696"
    INDEX 01 00:43:29
  TRACK 49 AUDIO
    TITLE "0:"
    INDEX 01 00:44:60
  TRACK 50 AUDIO
    TITLE "17:cjc029_6697"
    INDEX 01 00:45:41
  TRACK 51 AUDIO
    TITLE "0:"
    INDEX 01 00:49:10
  TRACK 52 AUDIO
    TITLE "16:cjc029_6698"
    INDEX 01 00:49:14
  TRACK 53 AUDIO
    TITLE "0:"
    INDEX 01 00:50:33
  TRACK 54 AUDIO
    TITLE "17:cjc029_6699"
    INDEX 01 00:51:16
  TRACK 55 AUDIO
    TITLE "0:"
    INDEX 01 00:53:53
  TRACK 56 AUDIO
    TITLE "16:cjc029_6700"
    INDEX 01 00:53:58
  TRACK 57 AUDIO
    TITLE "0:"
    INDEX 01 00:55:08
  TRACK 58 AUDIO
    TITLE "17:cjc029_6701"
    INDEX 01 00:55:69
  TRACK 59 AUDIO
    TITLE "0:"
    INDEX 01 00:59:38
  TRACK 60 AUDIO
    TITLE "16:cjc029_6702"
    INDEX 01 00:59:43
  TRACK 61 AUDIO
    TITLE "0:"
    INDEX 01 01:00:49
  TRACK 62 AUDIO
    TITLE "17:cjc029_6703"
    INDEX 01 01:01:33
  TRACK 63 AUDIO
    TITLE "0:"
    INDEX 01 01:03:04
  TRACK 64 AUDIO
    TITLE "16:cjc029_6704"
    INDEX 01 01:03:08
  TRACK 65 AUDIO
    TITLE "0:"
    INDEX 01 01:04:37
